<svg width="15" height="15" viewBox="0 0 15 15" fill="none" xmlns="http://www.w3.org/2000/svg">
<path d="M10.2275 0L4.7729 0C3.83199 0 3.06836 0.763626 3.06836 1.70454V13.2955C3.06836 14.2364 3.83199 15 4.7729 15H10.2275C11.1684 15 11.932 14.2364 11.932 13.2955V1.70454C11.932 0.763626 11.1684 0 10.2275 0ZM7.50019 14.3182C6.93427 14.3182 6.47746 13.8614 6.47746 13.2955C6.47746 12.7295 6.93427 12.2727 7.50019 12.2727C8.06611 12.2727 8.52292 12.7295 8.52292 13.2955C8.52292 13.8614 8.06608 14.3182 7.50019 14.3182ZM10.5684 11.5909H4.43201V2.04546H10.5684V11.5909Z" fill="#664EF9"/>
</svg>
