<svg width="18" height="18" viewBox="0 0 18 18" fill="none" xmlns="http://www.w3.org/2000/svg">
<g clip-path="url(#clip0_559_738)">
<path d="M16.3924 16.0714C16.797 16.0714 17.1476 15.9378 17.4456 15.674L12.346 10.5741C12.2236 10.6617 12.105 10.7469 11.993 10.828C11.6113 11.1091 11.3016 11.3285 11.0638 11.4858C10.8259 11.6434 10.5095 11.804 10.1146 11.968C9.71934 12.1321 9.35113 12.214 9.00956 12.214H8.99956H8.98956C8.64795 12.214 8.27975 12.1322 7.88455 11.968C7.48935 11.804 7.17294 11.6434 6.93536 11.4858C6.69754 11.3285 6.38797 11.1092 6.00613 10.828C5.89972 10.7499 5.78172 10.6644 5.65413 10.5728L0.553467 15.674C0.851476 15.9378 1.2023 16.0714 1.60688 16.0714H16.3924Z" fill="white"/>
<path d="M1.01462 7.36276C0.633012 7.10835 0.294611 6.81698 0 6.48877V14.2478L4.49485 9.75298C3.59562 9.1252 2.43702 8.32937 1.01462 7.36276Z" fill="white"/>
<path d="M16.9959 7.36276C15.6278 8.28879 14.4649 9.08598 13.5073 9.75478L18.0003 14.248V6.48877C17.7123 6.81037 17.3775 7.10155 16.9959 7.36276Z" fill="white"/>
<path d="M16.3928 1.92847H1.60728C1.09146 1.92847 0.694891 2.10265 0.417078 2.45066C0.139036 2.79883 0.000244141 3.23426 0.000244141 3.75646C0.000244141 4.17826 0.184429 4.63529 0.552635 5.12768C0.920841 5.61987 1.31264 6.00648 1.72784 6.28769C1.95546 6.44851 2.64187 6.9257 3.78708 7.71911C4.40528 8.14751 4.9429 8.52091 5.4049 8.84314C5.7987 9.11752 6.13831 9.35514 6.4187 9.55233C6.45089 9.57491 6.50151 9.61112 6.5687 9.65916C6.64109 9.71115 6.73269 9.77713 6.8457 9.85874C7.06331 10.0161 7.2441 10.1433 7.38809 10.2405C7.53188 10.3378 7.7061 10.4464 7.91048 10.5669C8.1147 10.6874 8.30731 10.7779 8.4881 10.8382C8.66892 10.8984 8.8363 10.9285 8.99029 10.9285H9.00029H9.01029C9.16425 10.9285 9.33167 10.8984 9.51252 10.8382C9.69327 10.7779 9.88573 10.6876 10.0901 10.5669C10.2943 10.4464 10.4683 10.3375 10.6125 10.2405C10.7565 10.1433 10.9373 10.0162 11.155 9.85874C11.2677 9.77713 11.3593 9.71112 11.4317 9.65932C11.4989 9.61109 11.5495 9.57511 11.5819 9.55233C11.8004 9.40033 12.1407 9.1637 12.5984 8.84592C13.4312 8.26732 14.6576 7.41571 16.2828 6.28769C16.7716 5.94628 17.18 5.53428 17.5082 5.05229C17.8358 4.57029 18 4.0647 18 3.53567C18 3.09367 17.8408 2.71547 17.523 2.40046C17.2048 2.08585 16.828 1.92847 16.3928 1.92847Z" fill="white"/>
</g>
<defs>
<clipPath id="clip0_559_738">
<rect width="18" height="18" fill="white"/>
</clipPath>
</defs>
</svg>
