<svg width="36" height="36" viewBox="0 0 36 36" fill="none" xmlns="http://www.w3.org/2000/svg">
<rect width="36" height="36" rx="18" fill="#664EF9"/>
<g clip-path="url(#clip0_559_736)">
<path d="M25.3924 25.0714C25.797 25.0714 26.1476 24.9378 26.4456 24.674L21.346 19.5741C21.2236 19.6617 21.105 19.7469 20.993 19.828C20.6113 20.1091 20.3016 20.3285 20.0638 20.4858C19.8259 20.6434 19.5095 20.804 19.1146 20.968C18.7193 21.1321 18.3511 21.214 18.0096 21.214H17.9996H17.9896C17.648 21.214 17.2797 21.1322 16.8845 20.968C16.4893 20.804 16.1729 20.6434 15.9354 20.4858C15.6975 20.3285 15.388 20.1092 15.0061 19.828C14.8997 19.7499 14.7817 19.6644 14.6541 19.5728L9.55347 24.674C9.85148 24.9378 10.2023 25.0714 10.6069 25.0714H25.3924Z" fill="white"/>
<path d="M10.0146 16.3628C9.63301 16.1084 9.29461 15.817 9 15.4888V23.2478L13.4948 18.753C12.5956 18.1252 11.437 17.3294 10.0146 16.3628Z" fill="white"/>
<path d="M25.9959 16.3628C24.6278 17.2888 23.4649 18.086 22.5073 18.7548L27.0003 23.248V15.4888C26.7123 15.8104 26.3775 16.1016 25.9959 16.3628Z" fill="white"/>
<path d="M25.3928 10.9285H10.6073C10.0915 10.9285 9.69489 11.1027 9.41708 11.4507C9.13904 11.7988 9.00024 12.2343 9.00024 12.7565C9.00024 13.1783 9.18443 13.6353 9.55263 14.1277C9.92084 14.6199 10.3126 15.0065 10.7278 15.2877C10.9555 15.4485 11.6419 15.9257 12.7871 16.7191C13.4053 17.1475 13.9429 17.5209 14.4049 17.8431C14.7987 18.1175 15.1383 18.3551 15.4187 18.5523C15.4509 18.5749 15.5015 18.6111 15.5687 18.6592C15.6411 18.7112 15.7327 18.7771 15.8457 18.8587C16.0633 19.0161 16.2441 19.1433 16.3881 19.2405C16.5319 19.3378 16.7061 19.4464 16.9105 19.5669C17.1147 19.6874 17.3073 19.7779 17.4881 19.8382C17.6689 19.8984 17.8363 19.9285 17.9903 19.9285H18.0003H18.0103C18.1642 19.9285 18.3317 19.8984 18.5125 19.8382C18.6933 19.7779 18.8857 19.6876 19.0901 19.5669C19.2943 19.4464 19.4683 19.3375 19.6125 19.2405C19.7565 19.1433 19.9373 19.0162 20.155 18.8587C20.2677 18.7771 20.3593 18.7111 20.4317 18.6593C20.4989 18.6111 20.5495 18.5751 20.5819 18.5523C20.8004 18.4003 21.1407 18.1637 21.5984 17.8459C22.4312 17.2673 23.6576 16.4157 25.2828 15.2877C25.7716 14.9463 26.18 14.5343 26.5082 14.0523C26.8358 13.5703 27 13.0647 27 12.5357C27 12.0937 26.8408 11.7155 26.523 11.4005C26.2048 11.0859 25.828 10.9285 25.3928 10.9285Z" fill="white"/>
</g>
<defs>
<clipPath id="clip0_559_736">
<rect width="18" height="18" fill="white" transform="translate(9 9)"/>
</clipPath>
</defs>
</svg>
