<svg width="15" height="15" viewBox="0 0 15 15" fill="none" xmlns="http://www.w3.org/2000/svg">
<path d="M12.462 2.61628C11.3632 0.941861 9.54923 0 7.50853 0C5.48528 0 3.67132 0.941861 2.5376 2.61628C1.40388 4.25581 1.14225 6.34884 1.83993 8.18023C2.03179 8.6686 2.3283 9.17442 2.71202 9.62791L7.12481 14.8256C7.22946 14.9302 7.33412 15 7.49109 15C7.64807 15 7.75272 14.9302 7.85737 14.8256L12.2876 9.62791C12.6713 9.17442 12.9853 8.68605 13.1597 8.18023C13.8574 6.34884 13.5957 4.25581 12.462 2.61628ZM7.50853 8.7907C6.00853 8.7907 4.77016 7.55233 4.77016 6.05233C4.77016 4.55233 6.00853 3.31395 7.50853 3.31395C9.00853 3.31395 10.2469 4.55233 10.2469 6.05233C10.2469 7.55233 9.02598 8.7907 7.50853 8.7907Z" fill="url(#paint0_linear_559_22)"/>
<defs>
<linearGradient id="paint0_linear_559_22" x1="1.45508" y1="0.75" x2="15.7623" y2="4.06928" gradientUnits="userSpaceOnUse">
<stop stop-color="#FFD54F"/>
<stop offset="1" stop-color="#FEC100"/>
</linearGradient>
</defs>
</svg>
