<svg width="18" height="18" viewBox="0 0 18 18" fill="none" xmlns="http://www.w3.org/2000/svg">
<path d="M8.90288 1.40754C7.63406 1.42468 4.90396 1.63296 3.37677 3.03228C2.24307 4.15939 1.84694 5.82104 1.8008 7.87884C1.76125 9.92872 1.71511 13.778 5.42599 14.8267V16.4218C5.42599 16.4218 5.40094 17.0611 5.82279 17.1929C6.34349 17.3577 6.6401 16.864 7.13445 16.3367L8.05722 15.2953C10.5949 15.5062 12.5393 15.0191 12.7634 14.9466C13.2775 14.7819 16.1783 14.4121 16.6529 10.5621C17.1406 6.58695 16.4156 4.08227 15.1105 2.94857L15.1039 2.94726C14.7085 2.58474 13.1266 1.43127 9.58705 1.41808C9.58705 1.41808 9.32604 1.40161 8.90288 1.40754ZM8.94704 2.52607C9.30627 2.5241 9.52707 2.53926 9.52707 2.53926C12.5195 2.54585 13.9505 3.44885 14.2866 3.75205C15.3874 4.69394 15.9529 6.95276 15.539 10.2721C15.1435 13.4887 12.7904 13.693 12.3554 13.8314C12.1708 13.8907 10.4571 14.3126 8.30044 14.1741C8.30044 14.1741 6.69283 16.1126 6.1919 16.6136C6.1128 16.6993 6.02052 16.7256 5.9612 16.7124C5.87552 16.6927 5.84915 16.5872 5.85574 16.4422L5.86892 13.7932C2.72424 12.9231 2.90879 9.63936 2.94175 7.92563C2.98129 6.21191 3.30427 4.80665 4.26 3.85751C5.54991 2.69086 7.86871 2.53267 8.94638 2.52607H8.94704ZM9.18433 4.2398C9.15839 4.23972 9.13269 4.24475 9.10871 4.25461C9.08472 4.26448 9.06292 4.27898 9.04455 4.29729C9.02618 4.3156 9.0116 4.33736 9.00165 4.36131C8.99171 4.38526 8.98659 4.41094 8.98659 4.43688C8.98659 4.48932 9.00742 4.53962 9.04451 4.5767C9.08159 4.61379 9.13188 4.63462 9.18433 4.63462C9.67435 4.62527 10.1614 4.71307 10.6173 4.89294C11.0732 5.07282 11.489 5.34121 11.8406 5.68263C12.5591 6.3813 12.909 7.31726 12.9222 8.54323C12.9222 8.5692 12.9273 8.59491 12.9373 8.61891C12.9472 8.6429 12.9618 8.66469 12.9801 8.68306C12.9985 8.70142 13.0203 8.71598 13.0443 8.72592C13.0683 8.73586 13.094 8.74097 13.12 8.74097V8.73504C13.1724 8.73504 13.2227 8.71421 13.2598 8.67712C13.2969 8.64004 13.3177 8.58975 13.3177 8.5373C13.3422 7.96075 13.249 7.38526 13.0439 6.84588C12.8388 6.30649 12.526 5.8145 12.1247 5.39986C11.3403 4.63528 10.3503 4.2398 9.18367 4.2398H9.18433ZM6.57814 4.6946C6.43797 4.67462 6.29516 4.70249 6.17278 4.77369H6.16487C5.89463 4.93188 5.64548 5.12962 5.4082 5.39327C5.23023 5.60419 5.1307 5.81445 5.10434 6.01878C5.08883 6.13862 5.10008 6.26041 5.13729 6.37537L5.15048 6.38196C5.35364 6.97922 5.61873 7.55359 5.94143 8.09569C6.35972 8.85488 6.87363 9.55731 7.4706 10.1858L7.49037 10.2121L7.51674 10.2319L7.53651 10.2517L7.55629 10.2715C8.18722 10.8699 8.89151 11.386 9.65231 11.8072C10.5224 12.2818 11.051 12.5059 11.3674 12.5982V12.6048C11.4596 12.6311 11.544 12.6443 11.6297 12.6443C11.8997 12.6246 12.1554 12.5151 12.356 12.3332C12.6131 12.1025 12.8174 11.8468 12.969 11.5765V11.5699C13.1206 11.2865 13.0679 11.0156 12.8504 10.8311C12.412 10.4476 11.9374 10.1076 11.4333 9.81601C11.0971 9.63145 10.7544 9.7435 10.6159 9.92806L10.3193 10.3031C10.1677 10.4877 9.89091 10.4613 9.89091 10.4613L9.883 10.4679C7.82653 9.94058 7.27945 7.8584 7.27945 7.8584C7.27945 7.8584 7.25309 7.57498 7.44424 7.42997L7.81335 7.13336C7.99131 6.98836 8.11654 6.64561 7.9254 6.30946C7.63416 5.80505 7.29419 5.33041 6.91034 4.89234C6.82685 4.78878 6.70898 4.71862 6.57814 4.6946ZM9.52641 5.28122C9.47397 5.2814 9.42374 5.3024 9.38679 5.3396C9.34983 5.37681 9.32916 5.42717 9.32933 5.47962C9.32951 5.53206 9.35051 5.58229 9.38772 5.61925C9.42492 5.65621 9.47529 5.67687 9.52773 5.6767C10.1874 5.68815 10.8155 5.96074 11.2744 6.43469C11.4815 6.66309 11.6406 6.93066 11.7425 7.22161C11.8444 7.51256 11.8869 7.82098 11.8676 8.12864C11.8678 8.18097 11.8887 8.2311 11.9258 8.26804C11.9628 8.30498 12.013 8.32572 12.0654 8.32572L12.072 8.33363C12.098 8.33363 12.1237 8.3285 12.1478 8.31852C12.1718 8.30854 12.1936 8.29391 12.212 8.27548C12.2304 8.25705 12.2449 8.23518 12.2548 8.21111C12.2647 8.18704 12.2698 8.16126 12.2697 8.13523C12.2895 7.35088 12.0456 6.69175 11.5644 6.16445C11.0833 5.63715 10.411 5.34054 9.5541 5.28122C9.54488 5.28057 9.53563 5.28057 9.52641 5.28122ZM9.84938 6.34835C9.82294 6.34757 9.7966 6.352 9.77187 6.3614C9.74715 6.3708 9.72451 6.38498 9.70526 6.40313C9.68601 6.42128 9.67053 6.44304 9.65969 6.46717C9.64885 6.4913 9.64287 6.51733 9.64209 6.54378C9.64131 6.57022 9.64575 6.59656 9.65515 6.62129C9.66455 6.64601 9.67873 6.66865 9.69687 6.6879C9.71502 6.70715 9.73678 6.72263 9.76091 6.73347C9.78505 6.74431 9.81108 6.75029 9.83752 6.75107C10.4901 6.78403 10.8064 7.11359 10.846 7.79249C10.8477 7.84378 10.8693 7.8924 10.9062 7.92807C10.9431 7.96374 10.9924 7.98366 11.0437 7.98364H11.0503C11.0769 7.98281 11.103 7.97664 11.1271 7.9655C11.1512 7.95435 11.1728 7.93847 11.1907 7.91878C11.2085 7.89909 11.2222 7.87601 11.2309 7.85092C11.2397 7.82582 11.2432 7.79922 11.2415 7.77272C11.1953 6.88949 10.7142 6.39448 9.85729 6.34835C9.85466 6.34829 9.85202 6.34829 9.84938 6.34835Z" fill="white"/>
</svg>
