<svg width="18" height="18" viewBox="0 0 18 18" fill="none" xmlns="http://www.w3.org/2000/svg">
<g clip-path="url(#clip0_559_409)">
<path d="M14.8583 9.76578C14.569 9.40054 14.6518 9.23804 14.8583 8.91156C14.862 8.90783 17.2495 5.60871 17.4955 4.48987L17.497 4.48912C17.6192 4.08139 17.497 3.78174 16.9059 3.78174H14.9499C14.452 3.78174 14.2224 4.0389 14.0994 4.32662C14.0994 4.32662 13.1036 6.7104 11.6948 8.25561C11.2401 8.7021 11.0299 8.84522 10.7817 8.84522C10.6594 8.84522 10.4694 8.7021 10.4694 8.29437V4.48912C10.4694 4.00014 10.33 3.78174 9.91776 3.78174H6.84225C6.52993 3.78174 6.34433 4.00983 6.34433 4.22227C6.34433 4.6859 7.04873 4.7925 7.12178 6.09694V8.92721C7.12178 9.54738 7.00922 9.66143 6.75951 9.66143C6.09462 9.66143 4.48084 7.26796 3.52449 4.52863C3.33143 3.99716 3.14285 3.78248 2.6412 3.78248H0.684529C0.126227 3.78248 0.0136719 4.03965 0.0136719 4.32737C0.0136719 4.83573 0.678566 7.36337 3.10558 10.7027C4.72309 12.9822 7.00102 14.2173 9.07323 14.2173C10.3188 14.2173 10.4708 13.943 10.4708 13.4712C10.4708 11.2931 10.3583 11.0874 10.9822 11.0874C11.2714 11.0874 11.7693 11.2305 12.9321 12.33C14.2612 13.6336 14.4796 14.2173 15.2235 14.2173H17.1794C17.737 14.2173 18.0195 13.943 17.857 13.4018C17.485 12.2636 14.9716 9.92232 14.8583 9.76578Z" fill="#1E2123"/>
</g>
<defs>
<clipPath id="clip0_559_409">
<rect width="17.8895" height="17.8895" fill="white" transform="translate(0.0136719 0.0551758)"/>
</clipPath>
</defs>
</svg>
