<svg width="19" height="18" viewBox="0 0 19 18" fill="none" xmlns="http://www.w3.org/2000/svg">
<path d="M14.7576 3.62081C14.0616 2.91967 13.2331 2.3638 12.3205 1.98548C11.4078 1.60717 10.429 1.41394 9.44107 1.41703C5.29986 1.41703 1.92926 4.78763 1.92926 8.93168C1.92926 10.2558 2.27618 11.5506 2.93304 12.6881L1.8667 16.5828L5.85056 15.5373C6.95194 16.1373 8.18594 16.452 9.44012 16.453H9.44296C13.5842 16.453 16.9576 13.0824 16.9576 8.93832C16.9601 7.95068 16.7669 6.97233 16.3892 6.0598C16.0114 5.14726 15.4565 4.31862 14.7567 3.62176L14.7576 3.62081ZM9.44296 15.1847C8.32368 15.1849 7.22496 14.8841 6.26194 14.3136L6.0335 14.1771L3.66953 14.7961L4.30081 12.4919L4.15294 12.2549C3.52523 11.2604 3.19351 10.1077 3.19655 8.93168C3.19856 7.2749 3.8578 5.6866 5.02958 4.51534C6.20137 3.34409 7.78997 2.68557 9.44675 2.68432C11.114 2.68432 12.6846 3.33645 13.8628 4.51464C14.4443 5.09396 14.9051 5.78276 15.2188 6.54123C15.5325 7.2997 15.6927 8.11281 15.6903 8.93358C15.6875 12.381 12.8856 15.1847 9.44296 15.1847ZM12.8676 10.5051C12.6809 10.4103 11.7567 9.95727 11.5851 9.89471C11.4136 9.83215 11.2884 9.79992 11.1614 9.98949C11.0373 10.1762 10.6761 10.5999 10.5662 10.7269C10.4562 10.8511 10.3472 10.8691 10.1605 10.7743C9.97376 10.6795 9.36618 10.4814 8.6496 9.84163C8.09226 9.344 7.71406 8.72789 7.60411 8.54116C7.49416 8.35443 7.59179 8.25112 7.68752 8.15917C7.77378 8.07576 7.87425 7.94022 7.96904 7.83026C8.06382 7.72031 8.09321 7.64354 8.15577 7.51652C8.21832 7.39235 8.18799 7.2824 8.1406 7.18761C8.09321 7.09283 7.7169 6.16866 7.56335 5.79236C7.41264 5.42459 7.2553 5.47578 7.13966 5.46914C7.0297 5.46345 6.90553 5.46345 6.78136 5.46345C6.65719 5.46345 6.45246 5.51085 6.28089 5.69757C6.10933 5.8843 5.62308 6.34023 5.62308 7.26439C5.62308 8.18856 6.29511 9.08049 6.3899 9.20751C6.48468 9.33168 7.71406 11.2302 9.59746 12.0426C10.0449 12.235 10.3946 12.3506 10.6667 12.4397C11.1169 12.5819 11.5254 12.561 11.8486 12.5137C12.2098 12.4606 12.9595 12.0606 13.1169 11.6217C13.2742 11.1829 13.2742 10.8075 13.2268 10.7298C13.1823 10.6464 13.0581 10.5999 12.8685 10.5042L12.8676 10.5051Z" fill="#1E2123"/>
</svg>
