<svg width="36" height="36" viewBox="0 0 36 36" fill="none" xmlns="http://www.w3.org/2000/svg">
<rect width="36" height="36" rx="18" fill="#0DBB41"/>
<path d="M23.3802 12.5878C22.6798 11.8823 21.8463 11.323 20.928 10.9424C20.0097 10.5617 19.0249 10.3673 18.0308 10.3704C13.864 10.3704 10.4726 13.7618 10.4726 17.9315C10.4726 19.2638 10.8217 20.5666 11.4826 21.711L10.4097 25.6298L14.4181 24.5779C15.5263 25.1815 16.7679 25.4983 18.0299 25.4992H18.0327C22.1995 25.4992 25.5938 22.1078 25.5938 17.9381C25.5963 16.9444 25.4019 15.96 25.0218 15.0418C24.6417 14.1237 24.0834 13.2899 23.3792 12.5887L23.3802 12.5878ZM18.0327 24.2231C16.9065 24.2233 15.801 23.9206 14.832 23.3467L14.6022 23.2093L12.2236 23.8321L12.8588 21.5136L12.71 21.2752C12.0784 20.2745 11.7447 19.1148 11.7477 17.9315C11.7498 16.2644 12.4131 14.6663 13.5921 13.4878C14.7711 12.3094 16.3695 11.6468 18.0365 11.6455C19.7141 11.6455 21.2944 12.3017 22.4799 13.4871C23.0649 14.07 23.5286 14.7631 23.8442 15.5262C24.1598 16.2894 24.3211 17.1075 24.3187 17.9334C24.3158 21.402 21.4966 24.2222 18.0327 24.2222V24.2231ZM21.4785 19.5146C21.2906 19.4193 20.3607 18.9634 20.1881 18.9004C20.0155 18.8375 19.8896 18.8051 19.7618 18.9958C19.6369 19.1837 19.2735 19.61 19.1629 19.7378C19.0522 19.8627 18.9426 19.8808 18.7547 19.7855C18.5668 19.6901 17.9555 19.4908 17.2345 18.847C16.6737 18.3463 16.2931 17.7264 16.1825 17.5385C16.0719 17.3506 16.1701 17.2467 16.2664 17.1542C16.3532 17.0703 16.4543 16.9339 16.5497 16.8232C16.6451 16.7126 16.6746 16.6354 16.7376 16.5076C16.8005 16.3826 16.77 16.272 16.7223 16.1766C16.6746 16.0812 16.296 15.1514 16.1415 14.7727C15.9899 14.4027 15.8315 14.4542 15.7152 14.4475C15.6046 14.4418 15.4796 14.4418 15.3547 14.4418C15.2297 14.4418 15.0237 14.4895 14.8511 14.6774C14.6785 14.8653 14.1892 15.324 14.1892 16.2539C14.1892 17.1837 14.8654 18.0812 14.9608 18.209C15.0562 18.3339 16.2931 20.2442 18.1882 21.0616C18.6383 21.2552 18.9902 21.3715 19.264 21.4612C19.717 21.6042 20.128 21.5832 20.4532 21.5355C20.8166 21.4821 21.571 21.0797 21.7293 20.6381C21.8876 20.1965 21.8876 19.8189 21.84 19.7407C21.7951 19.6567 21.6702 19.61 21.4794 19.5137L21.4785 19.5146Z" fill="white"/>
</svg>
