<svg width="18" height="18" viewBox="0 0 18 18" fill="none" xmlns="http://www.w3.org/2000/svg">
<path d="M14.3802 3.58779C13.6798 2.88232 12.8463 2.32301 11.928 1.94236C11.0097 1.56171 10.0249 1.36729 9.03081 1.3704C4.86403 1.3704 1.47261 4.76181 1.47261 8.93146C1.47261 10.2638 1.82167 11.5666 2.4826 12.711L1.40967 16.6298L5.41814 15.5779C6.52631 16.1815 7.76794 16.4983 9.02986 16.4992H9.03272C13.1995 16.4992 16.5938 13.1078 16.5938 8.93813C16.5963 7.9444 16.4019 6.96001 16.0218 6.04184C15.6417 5.12367 15.0834 4.28991 14.3792 3.58874L14.3802 3.58779ZM9.03272 15.2231C7.90653 15.2233 6.80102 14.9206 5.83205 14.3467L5.6022 14.2093L3.22364 14.8321L3.85881 12.5136L3.71003 12.2752C3.07844 11.2745 2.74467 10.1148 2.74773 8.93146C2.74975 7.26445 3.41306 5.66633 4.59208 4.48785C5.77111 3.30936 7.36952 2.64678 9.03653 2.64552C10.7141 2.64552 12.2944 3.30167 13.4799 4.48714C14.0649 5.07004 14.5286 5.76309 14.8442 6.52624C15.1598 7.2894 15.3211 8.10753 15.3187 8.93336C15.3158 12.402 12.4966 15.2222 9.03272 15.2222V15.2231ZM12.4785 10.5146C12.2906 10.4193 11.3607 9.96338 11.1881 9.90043C11.0155 9.83749 10.8896 9.80506 10.7618 9.9958C10.6369 10.1837 10.2735 10.61 10.1629 10.7378C10.0522 10.8627 9.94256 10.8808 9.75468 10.7855C9.5668 10.6901 8.95547 10.4908 8.23446 9.84702C7.67367 9.34632 7.29314 8.72641 7.18251 8.53853C7.07188 8.35064 7.17011 8.24669 7.26644 8.15418C7.35322 8.07025 7.45432 7.93387 7.54969 7.82324C7.64506 7.71261 7.67463 7.63536 7.73757 7.50756C7.80052 7.38262 7.77 7.27199 7.72231 7.17662C7.67463 7.08125 7.296 6.15138 7.1415 5.77275C6.98986 5.40271 6.83154 5.45421 6.71519 5.44753C6.60456 5.44181 6.47962 5.44181 6.35468 5.44181C6.22975 5.44181 6.02374 5.4895 5.85112 5.67738C5.6785 5.86526 5.18924 6.324 5.18924 7.25387C5.18924 8.18374 5.86543 9.08119 5.9608 9.20899C6.05617 9.33392 7.29314 11.2442 9.18817 12.0616C9.63833 12.2552 9.99025 12.3715 10.264 12.4612C10.717 12.6042 11.128 12.5832 11.4532 12.5355C11.8166 12.4821 12.571 12.0797 12.7293 11.6381C12.8876 11.1965 12.8876 10.8189 12.84 10.7407C12.7951 10.6567 12.6702 10.61 12.4794 10.5137L12.4785 10.5146Z" fill="white"/>
</svg>
