<svg width="0" height="0" class="hidden">
  <symbol xmlns="http://www.w3.org/2000/svg" viewBox="0 0 18 18" id="vk-icon">
    <g clip-path="url(#clip0_559_409)">
      <path d="M14.8583 9.76578C14.569 9.40054 14.6518 9.23804 14.8583 8.91156C14.862 8.90783 17.2495 5.60871 17.4955 4.48987L17.497 4.48912C17.6192 4.08139 17.497 3.78174 16.9059 3.78174H14.9499C14.452 3.78174 14.2224 4.0389 14.0994 4.32662C14.0994 4.32662 13.1036 6.7104 11.6948 8.25561C11.2401 8.7021 11.0299 8.84522 10.7817 8.84522C10.6594 8.84522 10.4694 8.7021 10.4694 8.29437V4.48912C10.4694 4.00014 10.33 3.78174 9.91776 3.78174H6.84225C6.52993 3.78174 6.34433 4.00983 6.34433 4.22227C6.34433 4.6859 7.04873 4.7925 7.12178 6.09694V8.92721C7.12178 9.54738 7.00922 9.66143 6.75951 9.66143C6.09462 9.66143 4.48084 7.26796 3.52449 4.52863C3.33143 3.99716 3.14285 3.78248 2.6412 3.78248H0.684529C0.126227 3.78248 0.0136719 4.03965 0.0136719 4.32737C0.0136719 4.83573 0.678566 7.36337 3.10558 10.7027C4.72309 12.9822 7.00102 14.2173 9.07323 14.2173C10.3188 14.2173 10.4708 13.943 10.4708 13.4712C10.4708 11.2931 10.3583 11.0874 10.9822 11.0874C11.2714 11.0874 11.7693 11.2305 12.9321 12.33C14.2612 13.6336 14.4796 14.2173 15.2235 14.2173H17.1794C17.737 14.2173 18.0195 13.943 17.857 13.4018C17.485 12.2636 14.9716 9.92232 14.8583 9.76578Z"></path>
    </g>
    <defs>
      <clipPath id="clip0_559_409">
        <rect width="17.8895" height="17.8895" transform="translate(0.0136719 0.0551758)"></rect>
      </clipPath>
    </defs>
  </symbol>
  <symbol xmlns="http://www.w3.org/2000/svg" viewBox="0 0 19 18" id="facebook-icon">
    <g clip-path="url(#clip0_559_413)">
      <path d="M12.0501 3.02558H13.6833V0.181148C13.4015 0.142387 12.4325 0.0551758 11.304 0.0551758C8.94929 0.0551758 7.33625 1.53628 7.33625 4.25847V6.76375H4.73779V9.94361H7.33625V17.9447H10.5221V9.94436H13.0154L13.4112 6.76449H10.5213V4.57377C10.5221 3.6547 10.7695 3.02558 12.0501 3.02558Z"></path>
    </g>
    <defs>
      <clipPath id="clip0_559_413">
        <rect width="17.8895" height="17.8895" transform="translate(0.126953 0.0551758)"></rect>
      </clipPath>
    </defs>
  </symbol>
  <symbol xmlns="http://www.w3.org/2000/svg" viewBox="0 0 19 18" id="viber-icon">
    <g clip-path="url(#clip0_559_421)">
      <path d="M9.08775 1.45392C7.82673 1.47095 5.11338 1.67795 3.59556 3.06869C2.46882 4.18888 2.07512 5.84034 2.02926 7.8855C1.98996 9.9228 1.9441 13.7485 5.63221 14.7907V16.376C5.63221 16.376 5.60731 17.0114 6.02656 17.1424C6.54408 17.3062 6.83886 16.8156 7.33017 16.2915L8.24729 15.2565C10.7693 15.4661 12.7018 14.982 12.9246 14.9099C13.4355 14.7462 16.3185 14.3787 16.7902 10.5523C17.2749 6.60154 16.5544 4.11223 15.2573 2.9855L15.2508 2.98419C14.8577 2.62389 13.2855 1.4775 9.76773 1.4644C9.76773 1.4644 9.50832 1.44802 9.08775 1.45392ZM9.13165 2.56559C9.48866 2.56362 9.70812 2.57869 9.70812 2.57869C12.6822 2.58524 14.1044 3.4827 14.4385 3.78404C15.5324 4.72015 16.0945 6.96511 15.6831 10.2641C15.2901 13.4609 12.9514 13.664 12.5191 13.8015C12.3356 13.8605 10.6324 14.2797 8.48901 14.1422C8.48901 14.1422 6.89127 16.0688 6.39341 16.5666C6.3148 16.6518 6.22309 16.678 6.16413 16.6649C6.07897 16.6452 6.05277 16.5404 6.05932 16.3963L6.07242 13.7635C2.94703 12.8988 3.13045 9.63522 3.16321 7.93201C3.20251 6.2288 3.5235 4.83217 4.47337 3.88885C5.75536 2.72936 8.06059 2.57214 9.13165 2.56559ZM9.36747 4.2688C9.3417 4.26871 9.31616 4.27371 9.29232 4.28352C9.26848 4.29332 9.24681 4.30774 9.22855 4.32593C9.21029 4.34413 9.19581 4.36575 9.18592 4.38956C9.17604 4.41337 9.17095 4.43889 9.17095 4.46467C9.17095 4.51679 9.19166 4.56678 9.22851 4.60363C9.26537 4.64049 9.31535 4.66119 9.36747 4.66119C9.85449 4.6519 10.3385 4.73916 10.7916 4.91793C11.2448 5.0967 11.658 5.36345 12.0074 5.70277C12.7215 6.39715 13.0693 7.32737 13.0824 8.54582C13.0824 8.57163 13.0875 8.59718 13.0974 8.62103C13.1073 8.64487 13.1217 8.66653 13.14 8.68478C13.1582 8.70303 13.1799 8.71751 13.2038 8.72738C13.2276 8.73726 13.2531 8.74234 13.279 8.74234V8.73645C13.3311 8.73645 13.3811 8.71574 13.4179 8.67889C13.4548 8.64203 13.4755 8.59204 13.4755 8.53992C13.4998 7.96691 13.4072 7.39496 13.2033 6.85888C12.9995 6.3228 12.6887 5.83383 12.2898 5.42174C11.5102 4.66185 10.527 4.2688 9.36747 4.2688ZM6.77729 4.7208C6.63798 4.70095 6.49604 4.72865 6.37441 4.79941H6.36655C6.09797 4.95663 5.85035 5.15316 5.61452 5.41519C5.43765 5.62481 5.33873 5.83379 5.31253 6.03686C5.29711 6.15596 5.3083 6.277 5.34528 6.39126L5.35838 6.39781C5.5603 6.99141 5.82376 7.56225 6.14448 8.10102C6.5602 8.85556 7.07096 9.55367 7.66427 10.1783L7.68392 10.2045L7.71012 10.2241L7.72977 10.2438L7.74943 10.2634C8.37649 10.8582 9.07646 11.3711 9.83258 11.7898C10.6973 12.2614 11.2227 12.4842 11.5371 12.5759V12.5824C11.6288 12.6086 11.7127 12.6217 11.7978 12.6217C12.0662 12.6021 12.3204 12.4933 12.5197 12.3125C12.7752 12.0833 12.9783 11.8291 13.1289 11.5605V11.5539C13.2796 11.2723 13.2272 11.003 13.011 10.8196C12.5754 10.4385 12.1037 10.1006 11.6026 9.81078C11.2685 9.62736 10.9279 9.73872 10.7903 9.92214L10.4955 10.2949C10.3449 10.4783 10.0697 10.4521 10.0697 10.4521L10.0619 10.4587C8.01801 9.93459 7.47429 7.86519 7.47429 7.86519C7.47429 7.86519 7.44809 7.58351 7.63806 7.43939L8.00491 7.1446C8.18178 7.00048 8.30624 6.65984 8.11627 6.32575C7.82682 5.82444 7.48893 5.35271 7.10745 4.91733C7.02447 4.81441 6.90732 4.74468 6.77729 4.7208ZM9.70746 5.30383C9.65534 5.304 9.60542 5.32487 9.56869 5.36185C9.53196 5.39883 9.51142 5.44888 9.51159 5.501C9.51177 5.55313 9.53264 5.60304 9.56962 5.63978C9.60659 5.67651 9.65665 5.69705 9.70877 5.69687C10.3643 5.70825 10.9886 5.97917 11.4447 6.45022C11.6505 6.67721 11.8087 6.94314 11.91 7.23231C12.0112 7.52147 12.0535 7.82799 12.0343 8.13377C12.0345 8.18578 12.0553 8.2356 12.0921 8.27231C12.1289 8.30903 12.1788 8.32964 12.2308 8.32964L12.2374 8.3375C12.2632 8.3375 12.2889 8.3324 12.3127 8.32248C12.3366 8.31256 12.3583 8.29803 12.3766 8.27971C12.3948 8.26139 12.4093 8.23965 12.4191 8.21573C12.429 8.19181 12.434 8.16619 12.4339 8.14032C12.4536 7.36078 12.2112 6.7057 11.733 6.18163C11.2548 5.65757 10.5866 5.36278 9.73497 5.30383C9.72581 5.30318 9.71662 5.30318 9.70746 5.30383ZM10.0285 6.3644C10.0022 6.36363 9.97599 6.36804 9.95142 6.37738C9.92684 6.38672 9.90434 6.40081 9.88521 6.41885C9.86608 6.43688 9.85069 6.45851 9.83992 6.4825C9.82914 6.50648 9.8232 6.53235 9.82243 6.55863C9.82165 6.58491 9.82606 6.61109 9.8354 6.63567C9.84475 6.66024 9.85884 6.68274 9.87687 6.70187C9.89491 6.721 9.91654 6.73639 9.94052 6.74716C9.96451 6.75794 9.99038 6.76388 10.0167 6.76465C10.6652 6.79741 10.9796 7.12495 11.0189 7.79968C11.0206 7.85066 11.0421 7.89898 11.0788 7.93443C11.1154 7.96988 11.1644 7.98968 11.2155 7.98966H11.222C11.2484 7.98883 11.2744 7.9827 11.2983 7.97163C11.3223 7.96055 11.3438 7.94476 11.3615 7.9252C11.3793 7.90563 11.3929 7.88269 11.4015 7.85775C11.4102 7.83281 11.4138 7.80638 11.412 7.78003C11.3661 6.90222 10.8879 6.41026 10.0363 6.3644C10.0337 6.36435 10.0311 6.36435 10.0285 6.3644Z"></path>
    </g>
    <defs>
      <clipPath id="clip0_559_421">
        <rect width="17.8895" height="17.8895" transform="translate(0.239258 0.0551758)"></rect>
      </clipPath>
    </defs>
  </symbol>
  <symbol xmlns="http://www.w3.org/2000/svg" viewBox="0 0 19 18" id="telegram-icon">
    <path d="M15.7558 2.82593L2.53991 7.9222C1.63798 8.28447 1.6432 8.78761 2.37444 9.01197L5.76748 10.0704L13.618 5.11728C13.9892 4.89142 14.3284 5.01292 14.0496 5.26039L7.68912 11.0007H7.68762L7.68912 11.0014L7.45506 14.4988C7.79794 14.4988 7.94926 14.3416 8.14157 14.156L9.78964 12.5534L13.2177 15.0855C13.8498 15.4336 14.3038 15.2547 14.461 14.5003L16.7114 3.89482C16.9417 2.97128 16.3588 2.55311 15.7558 2.82593Z"></path>
  </symbol>
   <symbol xmlns="http://www.w3.org/2000/svg" viewBox="0 0 19 18" id="whatsapp-icon">
    <path d="M14.7576 3.62081C14.0616 2.91967 13.2331 2.3638 12.3205 1.98548C11.4078 1.60717 10.429 1.41394 9.44107 1.41703C5.29986 1.41703 1.92926 4.78763 1.92926 8.93168C1.92926 10.2558 2.27618 11.5506 2.93304 12.6881L1.8667 16.5828L5.85056 15.5373C6.95194 16.1373 8.18594 16.452 9.44012 16.453H9.44296C13.5842 16.453 16.9576 13.0824 16.9576 8.93832C16.9601 7.95068 16.7669 6.97233 16.3892 6.0598C16.0114 5.14726 15.4565 4.31862 14.7567 3.62176L14.7576 3.62081ZM9.44296 15.1847C8.32368 15.1849 7.22496 14.8841 6.26194 14.3136L6.0335 14.1771L3.66953 14.7961L4.30081 12.4919L4.15294 12.2549C3.52523 11.2604 3.19351 10.1077 3.19655 8.93168C3.19856 7.2749 3.8578 5.6866 5.02958 4.51534C6.20137 3.34409 7.78997 2.68557 9.44675 2.68432C11.114 2.68432 12.6846 3.33645 13.8628 4.51464C14.4443 5.09396 14.9051 5.78276 15.2188 6.54123C15.5325 7.2997 15.6927 8.11281 15.6903 8.93358C15.6875 12.381 12.8856 15.1847 9.44296 15.1847ZM12.8676 10.5051C12.6809 10.4103 11.7567 9.95727 11.5851 9.89471C11.4136 9.83215 11.2884 9.79992 11.1614 9.98949C11.0373 10.1762 10.6761 10.5999 10.5662 10.7269C10.4562 10.8511 10.3472 10.8691 10.1605 10.7743C9.97376 10.6795 9.36618 10.4814 8.6496 9.84163C8.09226 9.344 7.71406 8.72789 7.60411 8.54116C7.49416 8.35443 7.59179 8.25112 7.68752 8.15917C7.77378 8.07576 7.87425 7.94022 7.96904 7.83026C8.06382 7.72031 8.09321 7.64354 8.15577 7.51652C8.21832 7.39235 8.18799 7.2824 8.1406 7.18761C8.09321 7.09283 7.7169 6.16866 7.56335 5.79236C7.41264 5.42459 7.2553 5.47578 7.13966 5.46914C7.0297 5.46345 6.90553 5.46345 6.78136 5.46345C6.65719 5.46345 6.45246 5.51085 6.28089 5.69757C6.10933 5.8843 5.62308 6.34023 5.62308 7.26439C5.62308 8.18856 6.29511 9.08049 6.3899 9.20751C6.48468 9.33168 7.71406 11.2302 9.59746 12.0426C10.0449 12.235 10.3946 12.3506 10.6667 12.4397C11.1169 12.5819 11.5254 12.561 11.8486 12.5137C12.2098 12.4606 12.9595 12.0606 13.1169 11.6217C13.2742 11.1829 13.2742 10.8075 13.2268 10.7298C13.1823 10.6464 13.0581 10.5999 12.8685 10.5042L12.8676 10.5051Z"></path>
  </symbol>
  <symbol xmlns="http://www.w3.org/2000/svg" viewBox="0 0 18 18" id="viber">
    <path d="M8.90288 1.40754C7.63406 1.42468 4.90396 1.63296 3.37677 3.03228C2.24307 4.15939 1.84694 5.82104 1.8008 7.87884C1.76125 9.92872 1.71511 13.778 5.42599 14.8267V16.4218C5.42599 16.4218 5.40094 17.0611 5.82279 17.1929C6.34349 17.3577 6.6401 16.864 7.13445 16.3367L8.05722 15.2953C10.5949 15.5062 12.5393 15.0191 12.7634 14.9466C13.2775 14.7819 16.1783 14.4121 16.6529 10.5621C17.1406 6.58695 16.4156 4.08227 15.1105 2.94857L15.1039 2.94726C14.7085 2.58474 13.1266 1.43127 9.58705 1.41808C9.58705 1.41808 9.32604 1.40161 8.90288 1.40754ZM8.94704 2.52607C9.30627 2.5241 9.52707 2.53926 9.52707 2.53926C12.5195 2.54585 13.9505 3.44885 14.2866 3.75205C15.3874 4.69394 15.9529 6.95276 15.539 10.2721C15.1435 13.4887 12.7904 13.693 12.3554 13.8314C12.1708 13.8907 10.4571 14.3126 8.30044 14.1741C8.30044 14.1741 6.69283 16.1126 6.1919 16.6136C6.1128 16.6993 6.02052 16.7256 5.9612 16.7124C5.87552 16.6927 5.84915 16.5872 5.85574 16.4422L5.86892 13.7932C2.72424 12.9231 2.90879 9.63936 2.94175 7.92563C2.98129 6.21191 3.30427 4.80665 4.26 3.85751C5.54991 2.69086 7.86871 2.53267 8.94638 2.52607H8.94704ZM9.18433 4.2398C9.15839 4.23972 9.13269 4.24475 9.10871 4.25461C9.08472 4.26448 9.06292 4.27898 9.04455 4.29729C9.02618 4.3156 9.0116 4.33736 9.00165 4.36131C8.99171 4.38526 8.98659 4.41094 8.98659 4.43688C8.98659 4.48932 9.00742 4.53962 9.04451 4.5767C9.08159 4.61379 9.13188 4.63462 9.18433 4.63462C9.67435 4.62527 10.1614 4.71307 10.6173 4.89294C11.0732 5.07282 11.489 5.34121 11.8406 5.68263C12.5591 6.3813 12.909 7.31726 12.9222 8.54323C12.9222 8.5692 12.9273 8.59491 12.9373 8.61891C12.9472 8.6429 12.9618 8.66469 12.9801 8.68306C12.9985 8.70142 13.0203 8.71598 13.0443 8.72592C13.0683 8.73586 13.094 8.74097 13.12 8.74097V8.73504C13.1724 8.73504 13.2227 8.71421 13.2598 8.67712C13.2969 8.64004 13.3177 8.58975 13.3177 8.5373C13.3422 7.96075 13.249 7.38526 13.0439 6.84588C12.8388 6.30649 12.526 5.8145 12.1247 5.39986C11.3403 4.63528 10.3503 4.2398 9.18367 4.2398H9.18433ZM6.57814 4.6946C6.43797 4.67462 6.29516 4.70249 6.17278 4.77369H6.16487C5.89463 4.93188 5.64548 5.12962 5.4082 5.39327C5.23023 5.60419 5.1307 5.81445 5.10434 6.01878C5.08883 6.13862 5.10008 6.26041 5.13729 6.37537L5.15048 6.38196C5.35364 6.97922 5.61873 7.55359 5.94143 8.09569C6.35972 8.85488 6.87363 9.55731 7.4706 10.1858L7.49037 10.2121L7.51674 10.2319L7.53651 10.2517L7.55629 10.2715C8.18722 10.8699 8.89151 11.386 9.65231 11.8072C10.5224 12.2818 11.051 12.5059 11.3674 12.5982V12.6048C11.4596 12.6311 11.544 12.6443 11.6297 12.6443C11.8997 12.6246 12.1554 12.5151 12.356 12.3332C12.6131 12.1025 12.8174 11.8468 12.969 11.5765V11.5699C13.1206 11.2865 13.0679 11.0156 12.8504 10.8311C12.412 10.4476 11.9374 10.1076 11.4333 9.81601C11.0971 9.63145 10.7544 9.7435 10.6159 9.92806L10.3193 10.3031C10.1677 10.4877 9.89091 10.4613 9.89091 10.4613L9.883 10.4679C7.82653 9.94058 7.27945 7.8584 7.27945 7.8584C7.27945 7.8584 7.25309 7.57498 7.44424 7.42997L7.81335 7.13336C7.99131 6.98836 8.11654 6.64561 7.9254 6.30946C7.63416 5.80505 7.29419 5.33041 6.91034 4.89234C6.82685 4.78878 6.70898 4.71862 6.57814 4.6946ZM9.52641 5.28122C9.47397 5.2814 9.42374 5.3024 9.38679 5.3396C9.34983 5.37681 9.32916 5.42717 9.32933 5.47962C9.32951 5.53206 9.35051 5.58229 9.38772 5.61925C9.42492 5.65621 9.47529 5.67687 9.52773 5.6767C10.1874 5.68815 10.8155 5.96074 11.2744 6.43469C11.4815 6.66309 11.6406 6.93066 11.7425 7.22161C11.8444 7.51256 11.8869 7.82098 11.8676 8.12864C11.8678 8.18097 11.8887 8.2311 11.9258 8.26804C11.9628 8.30498 12.013 8.32572 12.0654 8.32572L12.072 8.33363C12.098 8.33363 12.1237 8.3285 12.1478 8.31852C12.1718 8.30854 12.1936 8.29391 12.212 8.27548C12.2304 8.25705 12.2449 8.23518 12.2548 8.21111C12.2647 8.18704 12.2698 8.16126 12.2697 8.13523C12.2895 7.35088 12.0456 6.69175 11.5644 6.16445C11.0833 5.63715 10.411 5.34054 9.5541 5.28122C9.54488 5.28057 9.53563 5.28057 9.52641 5.28122ZM9.84938 6.34835C9.82294 6.34757 9.7966 6.352 9.77187 6.3614C9.74715 6.3708 9.72451 6.38498 9.70526 6.40313C9.68601 6.42128 9.67053 6.44304 9.65969 6.46717C9.64885 6.4913 9.64287 6.51733 9.64209 6.54378C9.64131 6.57022 9.64575 6.59656 9.65515 6.62129C9.66455 6.64601 9.67873 6.66865 9.69687 6.6879C9.71502 6.70715 9.73678 6.72263 9.76091 6.73347C9.78505 6.74431 9.81108 6.75029 9.83752 6.75107C10.4901 6.78403 10.8064 7.11359 10.846 7.79249C10.8477 7.84378 10.8693 7.8924 10.9062 7.92807C10.9431 7.96374 10.9924 7.98366 11.0437 7.98364H11.0503C11.0769 7.98281 11.103 7.97664 11.1271 7.9655C11.1512 7.95435 11.1728 7.93847 11.1907 7.91878C11.2085 7.89909 11.2222 7.87601 11.2309 7.85092C11.2397 7.82582 11.2432 7.79922 11.2415 7.77272C11.1953 6.88949 10.7142 6.39448 9.85729 6.34835C9.85466 6.34829 9.85202 6.34829 9.84938 6.34835Z"></path>
  </symbol>
  <symbol xmlns="http://www.w3.org/2000/svg" viewBox="0 0 18 18" id="whatsapp">
    <path d="M14.3802 3.58779C13.6798 2.88232 12.8463 2.32301 11.928 1.94236C11.0097 1.56171 10.0249 1.36729 9.03081 1.3704C4.86403 1.3704 1.47261 4.76181 1.47261 8.93146C1.47261 10.2638 1.82167 11.5666 2.4826 12.711L1.40967 16.6298L5.41814 15.5779C6.52631 16.1815 7.76794 16.4983 9.02986 16.4992H9.03272C13.1995 16.4992 16.5938 13.1078 16.5938 8.93813C16.5963 7.9444 16.4019 6.96001 16.0218 6.04184C15.6417 5.12367 15.0834 4.28991 14.3792 3.58874L14.3802 3.58779ZM9.03272 15.2231C7.90653 15.2233 6.80102 14.9206 5.83205 14.3467L5.6022 14.2093L3.22364 14.8321L3.85881 12.5136L3.71003 12.2752C3.07844 11.2745 2.74467 10.1148 2.74773 8.93146C2.74975 7.26445 3.41306 5.66633 4.59208 4.48785C5.77111 3.30936 7.36952 2.64678 9.03653 2.64552C10.7141 2.64552 12.2944 3.30167 13.4799 4.48714C14.0649 5.07004 14.5286 5.76309 14.8442 6.52624C15.1598 7.2894 15.3211 8.10753 15.3187 8.93336C15.3158 12.402 12.4966 15.2222 9.03272 15.2222V15.2231ZM12.4785 10.5146C12.2906 10.4193 11.3607 9.96338 11.1881 9.90043C11.0155 9.83749 10.8896 9.80506 10.7618 9.9958C10.6369 10.1837 10.2735 10.61 10.1629 10.7378C10.0522 10.8627 9.94256 10.8808 9.75468 10.7855C9.5668 10.6901 8.95547 10.4908 8.23446 9.84702C7.67367 9.34632 7.29314 8.72641 7.18251 8.53853C7.07188 8.35064 7.17011 8.24669 7.26644 8.15418C7.35322 8.07025 7.45432 7.93387 7.54969 7.82324C7.64506 7.71261 7.67463 7.63536 7.73757 7.50756C7.80052 7.38262 7.77 7.27199 7.72231 7.17662C7.67463 7.08125 7.296 6.15138 7.1415 5.77275C6.98986 5.40271 6.83154 5.45421 6.71519 5.44753C6.60456 5.44181 6.47962 5.44181 6.35468 5.44181C6.22975 5.44181 6.02374 5.4895 5.85112 5.67738C5.6785 5.86526 5.18924 6.324 5.18924 7.25387C5.18924 8.18374 5.86543 9.08119 5.9608 9.20899C6.05617 9.33392 7.29314 11.2442 9.18817 12.0616C9.63833 12.2552 9.99025 12.3715 10.264 12.4612C10.717 12.6042 11.128 12.5832 11.4532 12.5355C11.8166 12.4821 12.571 12.0797 12.7293 11.6381C12.8876 11.1965 12.8876 10.8189 12.84 10.7407C12.7951 10.6567 12.6702 10.61 12.4794 10.5137L12.4785 10.5146Z"></path>
  </symbol>
  <symbol xmlns="http://www.w3.org/2000/svg" viewBox="0 0 18 18" id="mail">
    <g clip-path="url(#clip0_559_738)">
      <path d="M16.3924 16.0714C16.797 16.0714 17.1476 15.9378 17.4456 15.674L12.346 10.5741C12.2236 10.6617 12.105 10.7469 11.993 10.828C11.6113 11.1091 11.3016 11.3285 11.0638 11.4858C10.8259 11.6434 10.5095 11.804 10.1146 11.968C9.71934 12.1321 9.35113 12.214 9.00956 12.214H8.99956H8.98956C8.64795 12.214 8.27975 12.1322 7.88455 11.968C7.48935 11.804 7.17294 11.6434 6.93536 11.4858C6.69754 11.3285 6.38797 11.1092 6.00613 10.828C5.89972 10.7499 5.78172 10.6644 5.65413 10.5728L0.553467 15.674C0.851476 15.9378 1.2023 16.0714 1.60688 16.0714H16.3924Z"></path>
      <path d="M1.01462 7.36276C0.633012 7.10835 0.294611 6.81698 0 6.48877V14.2478L4.49485 9.75298C3.59562 9.1252 2.43702 8.32937 1.01462 7.36276Z"></path>
      <path d="M16.9959 7.36276C15.6278 8.28879 14.4649 9.08598 13.5073 9.75478L18.0003 14.248V6.48877C17.7123 6.81037 17.3775 7.10155 16.9959 7.36276Z"></path>
      <path d="M16.3928 1.92847H1.60728C1.09146 1.92847 0.694891 2.10265 0.417078 2.45066C0.139036 2.79883 0.000244141 3.23426 0.000244141 3.75646C0.000244141 4.17826 0.184429 4.63529 0.552635 5.12768C0.920841 5.61987 1.31264 6.00648 1.72784 6.28769C1.95546 6.44851 2.64187 6.9257 3.78708 7.71911C4.40528 8.14751 4.9429 8.52091 5.4049 8.84314C5.7987 9.11752 6.13831 9.35514 6.4187 9.55233C6.45089 9.57491 6.50151 9.61112 6.5687 9.65916C6.64109 9.71115 6.73269 9.77713 6.8457 9.85874C7.06331 10.0161 7.2441 10.1433 7.38809 10.2405C7.53188 10.3378 7.7061 10.4464 7.91048 10.5669C8.1147 10.6874 8.30731 10.7779 8.4881 10.8382C8.66892 10.8984 8.8363 10.9285 8.99029 10.9285H9.00029H9.01029C9.16425 10.9285 9.33167 10.8984 9.51252 10.8382C9.69327 10.7779 9.88573 10.6876 10.0901 10.5669C10.2943 10.4464 10.4683 10.3375 10.6125 10.2405C10.7565 10.1433 10.9373 10.0162 11.155 9.85874C11.2677 9.77713 11.3593 9.71112 11.4317 9.65932C11.4989 9.61109 11.5495 9.57511 11.5819 9.55233C11.8004 9.40033 12.1407 9.1637 12.5984 8.84592C13.4312 8.26732 14.6576 7.41571 16.2828 6.28769C16.7716 5.94628 17.18 5.53428 17.5082 5.05229C17.8358 4.57029 18 4.0647 18 3.53567C18 3.09367 17.8408 2.71547 17.523 2.40046C17.2048 2.08585 16.828 1.92847 16.3928 1.92847Z"></path>
    </g>
    <defs>
      <clipPath id="clip0_559_738">
        <rect width="18" height="18"></rect>
      </clipPath>
    </defs>
  </symbol>
   <symbol xmlns="http://www.w3.org/2000/svg" viewBox="0 0 15 15" id="cellphone">
    <path d="M10.2275 0L4.7729 0C3.83199 0 3.06836 0.763626 3.06836 1.70454V13.2955C3.06836 14.2364 3.83199 15 4.7729 15H10.2275C11.1684 15 11.932 14.2364 11.932 13.2955V1.70454C11.932 0.763626 11.1684 0 10.2275 0ZM7.50019 14.3182C6.93427 14.3182 6.47746 13.8614 6.47746 13.2955C6.47746 12.7295 6.93427 12.2727 7.50019 12.2727C8.06611 12.2727 8.52292 12.7295 8.52292 13.2955C8.52292 13.8614 8.06608 14.3182 7.50019 14.3182ZM10.5684 11.5909H4.43201V2.04546H10.5684V11.5909Z"></path>
  </symbol>   
  <symbol xmlns="http://www.w3.org/2000/svg" viewBox="0 0 24 24" id="heart-icon">
    <path fill-rule="evenodd" clip-rule="evenodd" d="M11.9932 5.13581C9.9938 2.7984 6.65975 2.16964 4.15469 4.31001C1.64964 6.45038 1.29697 10.029 3.2642 12.5604C4.89982 14.6651 9.84977 19.1041 11.4721 20.5408C11.6536 20.7016 11.7444 20.7819 11.8502 20.8135C11.9426 20.8411 12.0437 20.8411 12.1361 20.8135C12.2419 20.7819 12.3327 20.7016 12.5142 20.5408C14.1365 19.1041 19.0865 14.6651 20.7221 12.5604C22.6893 10.029 22.3797 6.42787 19.8316 4.31001C17.2835 2.19216 13.9925 2.7984 11.9932 5.13581Z" stroke-width="2" stroke-linecap="round" stroke-linejoin="round"></path>
  </symbol>   
  <symbol xmlns="http://www.w3.org/2000/svg" viewBox="0 0 14 15" id="4-tiles">
    <rect y="0.5" width="5.44444" height="5.44444" rx="1" ></rect>
    <rect y="9.05566" width="5.44444" height="5.44444" rx="1" ></rect>
    <rect x="8.55566" y="0.5" width="5.44444" height="5.44444" rx="1" ></rect>
    <rect x="8.55566" y="9.05566" width="5.44444" height="5.44444" rx="1" ></rect>
  </symbol>   
</svg>

