<svg width="0" height="0" class="hidden">
  <symbol xmlns="http://www.w3.org/2000/svg" viewBox="0 0 18 18" id="vk-icon">
    <g clip-path="url(#clip0_559_409)">
      <path d="M14.8583 9.76578C14.569 9.40054 14.6518 9.23804 14.8583 8.91156C14.862 8.90783 17.2495 5.60871 17.4955 4.48987L17.497 4.48912C17.6192 4.08139 17.497 3.78174 16.9059 3.78174H14.9499C14.452 3.78174 14.2224 4.0389 14.0994 4.32662C14.0994 4.32662 13.1036 6.7104 11.6948 8.25561C11.2401 8.7021 11.0299 8.84522 10.7817 8.84522C10.6594 8.84522 10.4694 8.7021 10.4694 8.29437V4.48912C10.4694 4.00014 10.33 3.78174 9.91776 3.78174H6.84225C6.52993 3.78174 6.34433 4.00983 6.34433 4.22227C6.34433 4.6859 7.04873 4.7925 7.12178 6.09694V8.92721C7.12178 9.54738 7.00922 9.66143 6.75951 9.66143C6.09462 9.66143 4.48084 7.26796 3.52449 4.52863C3.33143 3.99716 3.14285 3.78248 2.6412 3.78248H0.684529C0.126227 3.78248 0.0136719 4.03965 0.0136719 4.32737C0.0136719 4.83573 0.678566 7.36337 3.10558 10.7027C4.72309 12.9822 7.00102 14.2173 9.07323 14.2173C10.3188 14.2173 10.4708 13.943 10.4708 13.4712C10.4708 11.2931 10.3583 11.0874 10.9822 11.0874C11.2714 11.0874 11.7693 11.2305 12.9321 12.33C14.2612 13.6336 14.4796 14.2173 15.2235 14.2173H17.1794C17.737 14.2173 18.0195 13.943 17.857 13.4018C17.485 12.2636 14.9716 9.92232 14.8583 9.76578Z"></path>
    </g>
    <defs>
      <clipPath id="clip0_559_409">
        <rect width="17.8895" height="17.8895" transform="translate(0.0136719 0.0551758)"></rect>
      </clipPath>
    </defs>
  </symbol>
  <symbol xmlns="http://www.w3.org/2000/svg" viewBox="0 0 19 18" id="facebook-icon">
    <g clip-path="url(#clip0_559_413)">
      <path d="M12.0501 3.02558H13.6833V0.181148C13.4015 0.142387 12.4325 0.0551758 11.304 0.0551758C8.94929 0.0551758 7.33625 1.53628 7.33625 4.25847V6.76375H4.73779V9.94361H7.33625V17.9447H10.5221V9.94436H13.0154L13.4112 6.76449H10.5213V4.57377C10.5221 3.6547 10.7695 3.02558 12.0501 3.02558Z"></path>
    </g>
    <defs>
      <clipPath id="clip0_559_413">
        <rect width="17.8895" height="17.8895" transform="translate(0.126953 0.0551758)"></rect>
      </clipPath>
    </defs>
  </symbol>
  <symbol xmlns="http://www.w3.org/2000/svg" viewBox="0 0 19 18" id="viber-icon">
    <g clip-path="url(#clip0_559_421)">
      <path d="M9.08775 1.45392C7.82673 1.47095 5.11338 1.67795 3.59556 3.06869C2.46882 4.18888 2.07512 5.84034 2.02926 7.8855C1.98996 9.9228 1.9441 13.7485 5.63221 14.7907V16.376C5.63221 16.376 5.60731 17.0114 6.02656 17.1424C6.54408 17.3062 6.83886 16.8156 7.33017 16.2915L8.24729 15.2565C10.7693 15.4661 12.7018 14.982 12.9246 14.9099C13.4355 14.7462 16.3185 14.3787 16.7902 10.5523C17.2749 6.60154 16.5544 4.11223 15.2573 2.9855L15.2508 2.98419C14.8577 2.62389 13.2855 1.4775 9.76773 1.4644C9.76773 1.4644 9.50832 1.44802 9.08775 1.45392ZM9.13165 2.56559C9.48866 2.56362 9.70812 2.57869 9.70812 2.57869C12.6822 2.58524 14.1044 3.4827 14.4385 3.78404C15.5324 4.72015 16.0945 6.96511 15.6831 10.2641C15.2901 13.4609 12.9514 13.664 12.5191 13.8015C12.3356 13.8605 10.6324 14.2797 8.48901 14.1422C8.48901 14.1422 6.89127 16.0688 6.39341 16.5666C6.3148 16.6518 6.22309 16.678 6.16413 16.6649C6.07897 16.6452 6.05277 16.5404 6.05932 16.3963L6.07242 13.7635C2.94703 12.8988 3.13045 9.63522 3.16321 7.93201C3.20251 6.2288 3.5235 4.83217 4.47337 3.88885C5.75536 2.72936 8.06059 2.57214 9.13165 2.56559ZM9.36747 4.2688C9.3417 4.26871 9.31616 4.27371 9.29232 4.28352C9.26848 4.29332 9.24681 4.30774 9.22855 4.32593C9.21029 4.34413 9.19581 4.36575 9.18592 4.38956C9.17604 4.41337 9.17095 4.43889 9.17095 4.46467C9.17095 4.51679 9.19166 4.56678 9.22851 4.60363C9.26537 4.64049 9.31535 4.66119 9.36747 4.66119C9.85449 4.6519 10.3385 4.73916 10.7916 4.91793C11.2448 5.0967 11.658 5.36345 12.0074 5.70277C12.7215 6.39715 13.0693 7.32737 13.0824 8.54582C13.0824 8.57163 13.0875 8.59718 13.0974 8.62103C13.1073 8.64487 13.1217 8.66653 13.14 8.68478C13.1582 8.70303 13.1799 8.71751 13.2038 8.72738C13.2276 8.73726 13.2531 8.74234 13.279 8.74234V8.73645C13.3311 8.73645 13.3811 8.71574 13.4179 8.67889C13.4548 8.64203 13.4755 8.59204 13.4755 8.53992C13.4998 7.96691 13.4072 7.39496 13.2033 6.85888C12.9995 6.3228 12.6887 5.83383 12.2898 5.42174C11.5102 4.66185 10.527 4.2688 9.36747 4.2688ZM6.77729 4.7208C6.63798 4.70095 6.49604 4.72865 6.37441 4.79941H6.36655C6.09797 4.95663 5.85035 5.15316 5.61452 5.41519C5.43765 5.62481 5.33873 5.83379 5.31253 6.03686C5.29711 6.15596 5.3083 6.277 5.34528 6.39126L5.35838 6.39781C5.5603 6.99141 5.82376 7.56225 6.14448 8.10102C6.5602 8.85556 7.07096 9.55367 7.66427 10.1783L7.68392 10.2045L7.71012 10.2241L7.72977 10.2438L7.74943 10.2634C8.37649 10.8582 9.07646 11.3711 9.83258 11.7898C10.6973 12.2614 11.2227 12.4842 11.5371 12.5759V12.5824C11.6288 12.6086 11.7127 12.6217 11.7978 12.6217C12.0662 12.6021 12.3204 12.4933 12.5197 12.3125C12.7752 12.0833 12.9783 11.8291 13.1289 11.5605V11.5539C13.2796 11.2723 13.2272 11.003 13.011 10.8196C12.5754 10.4385 12.1037 10.1006 11.6026 9.81078C11.2685 9.62736 10.9279 9.73872 10.7903 9.92214L10.4955 10.2949C10.3449 10.4783 10.0697 10.4521 10.0697 10.4521L10.0619 10.4587C8.01801 9.93459 7.47429 7.86519 7.47429 7.86519C7.47429 7.86519 7.44809 7.58351 7.63806 7.43939L8.00491 7.1446C8.18178 7.00048 8.30624 6.65984 8.11627 6.32575C7.82682 5.82444 7.48893 5.35271 7.10745 4.91733C7.02447 4.81441 6.90732 4.74468 6.77729 4.7208ZM9.70746 5.30383C9.65534 5.304 9.60542 5.32487 9.56869 5.36185C9.53196 5.39883 9.51142 5.44888 9.51159 5.501C9.51177 5.55313 9.53264 5.60304 9.56962 5.63978C9.60659 5.67651 9.65665 5.69705 9.70877 5.69687C10.3643 5.70825 10.9886 5.97917 11.4447 6.45022C11.6505 6.67721 11.8087 6.94314 11.91 7.23231C12.0112 7.52147 12.0535 7.82799 12.0343 8.13377C12.0345 8.18578 12.0553 8.2356 12.0921 8.27231C12.1289 8.30903 12.1788 8.32964 12.2308 8.32964L12.2374 8.3375C12.2632 8.3375 12.2889 8.3324 12.3127 8.32248C12.3366 8.31256 12.3583 8.29803 12.3766 8.27971C12.3948 8.26139 12.4093 8.23965 12.4191 8.21573C12.429 8.19181 12.434 8.16619 12.4339 8.14032C12.4536 7.36078 12.2112 6.7057 11.733 6.18163C11.2548 5.65757 10.5866 5.36278 9.73497 5.30383C9.72581 5.30318 9.71662 5.30318 9.70746 5.30383ZM10.0285 6.3644C10.0022 6.36363 9.97599 6.36804 9.95142 6.37738C9.92684 6.38672 9.90434 6.40081 9.88521 6.41885C9.86608 6.43688 9.85069 6.45851 9.83992 6.4825C9.82914 6.50648 9.8232 6.53235 9.82243 6.55863C9.82165 6.58491 9.82606 6.61109 9.8354 6.63567C9.84475 6.66024 9.85884 6.68274 9.87687 6.70187C9.89491 6.721 9.91654 6.73639 9.94052 6.74716C9.96451 6.75794 9.99038 6.76388 10.0167 6.76465C10.6652 6.79741 10.9796 7.12495 11.0189 7.79968C11.0206 7.85066 11.0421 7.89898 11.0788 7.93443C11.1154 7.96988 11.1644 7.98968 11.2155 7.98966H11.222C11.2484 7.98883 11.2744 7.9827 11.2983 7.97163C11.3223 7.96055 11.3438 7.94476 11.3615 7.9252C11.3793 7.90563 11.3929 7.88269 11.4015 7.85775C11.4102 7.83281 11.4138 7.80638 11.412 7.78003C11.3661 6.90222 10.8879 6.41026 10.0363 6.3644C10.0337 6.36435 10.0311 6.36435 10.0285 6.3644Z"></path>
    </g>
    <defs>
      <clipPath id="clip0_559_421">
        <rect width="17.8895" height="17.8895" transform="translate(0.239258 0.0551758)"></rect>
      </clipPath>
    </defs>
  </symbol>
  <symbol xmlns="http://www.w3.org/2000/svg" viewBox="0 0 19 18" id="telegram-icon">
    <path d="M15.7558 2.82593L2.53991 7.9222C1.63798 8.28447 1.6432 8.78761 2.37444 9.01197L5.76748 10.0704L13.618 5.11728C13.9892 4.89142 14.3284 5.01292 14.0496 5.26039L7.68912 11.0007H7.68762L7.68912 11.0014L7.45506 14.4988C7.79794 14.4988 7.94926 14.3416 8.14157 14.156L9.78964 12.5534L13.2177 15.0855C13.8498 15.4336 14.3038 15.2547 14.461 14.5003L16.7114 3.89482C16.9417 2.97128 16.3588 2.55311 15.7558 2.82593Z"></path>
  </symbol>
   <symbol xmlns="http://www.w3.org/2000/svg" viewBox="0 0 19 18" id="whatsapp-icon">
    <path d="M14.7576 3.62081C14.0616 2.91967 13.2331 2.3638 12.3205 1.98548C11.4078 1.60717 10.429 1.41394 9.44107 1.41703C5.29986 1.41703 1.92926 4.78763 1.92926 8.93168C1.92926 10.2558 2.27618 11.5506 2.93304 12.6881L1.8667 16.5828L5.85056 15.5373C6.95194 16.1373 8.18594 16.452 9.44012 16.453H9.44296C13.5842 16.453 16.9576 13.0824 16.9576 8.93832C16.9601 7.95068 16.7669 6.97233 16.3892 6.0598C16.0114 5.14726 15.4565 4.31862 14.7567 3.62176L14.7576 3.62081ZM9.44296 15.1847C8.32368 15.1849 7.22496 14.8841 6.26194 14.3136L6.0335 14.1771L3.66953 14.7961L4.30081 12.4919L4.15294 12.2549C3.52523 11.2604 3.19351 10.1077 3.19655 8.93168C3.19856 7.2749 3.8578 5.6866 5.02958 4.51534C6.20137 3.34409 7.78997 2.68557 9.44675 2.68432C11.114 2.68432 12.6846 3.33645 13.8628 4.51464C14.4443 5.09396 14.9051 5.78276 15.2188 6.54123C15.5325 7.2997 15.6927 8.11281 15.6903 8.93358C15.6875 12.381 12.8856 15.1847 9.44296 15.1847ZM12.8676 10.5051C12.6809 10.4103 11.7567 9.95727 11.5851 9.89471C11.4136 9.83215 11.2884 9.79992 11.1614 9.98949C11.0373 10.1762 10.6761 10.5999 10.5662 10.7269C10.4562 10.8511 10.3472 10.8691 10.1605 10.7743C9.97376 10.6795 9.36618 10.4814 8.6496 9.84163C8.09226 9.344 7.71406 8.72789 7.60411 8.54116C7.49416 8.35443 7.59179 8.25112 7.68752 8.15917C7.77378 8.07576 7.87425 7.94022 7.96904 7.83026C8.06382 7.72031 8.09321 7.64354 8.15577 7.51652C8.21832 7.39235 8.18799 7.2824 8.1406 7.18761C8.09321 7.09283 7.7169 6.16866 7.56335 5.79236C7.41264 5.42459 7.2553 5.47578 7.13966 5.46914C7.0297 5.46345 6.90553 5.46345 6.78136 5.46345C6.65719 5.46345 6.45246 5.51085 6.28089 5.69757C6.10933 5.8843 5.62308 6.34023 5.62308 7.26439C5.62308 8.18856 6.29511 9.08049 6.3899 9.20751C6.48468 9.33168 7.71406 11.2302 9.59746 12.0426C10.0449 12.235 10.3946 12.3506 10.6667 12.4397C11.1169 12.5819 11.5254 12.561 11.8486 12.5137C12.2098 12.4606 12.9595 12.0606 13.1169 11.6217C13.2742 11.1829 13.2742 10.8075 13.2268 10.7298C13.1823 10.6464 13.0581 10.5999 12.8685 10.5042L12.8676 10.5051Z"></path>
  </symbol>
</svg>

